<svg width="522.689990234375px" height="364.4199584960937px" xmlns="http://www.w3.org/2000/svg" viewBox="-11.344995117187523 -107.20997924804686 522.689990234375 364.4199584960937" style="background: none;" preserveAspectRatio="xMidYMid"><defs><filter id="editing-extrusion" x="-100%" y="-100%" width="300%" height="300%"><feFlood result="color1" flood-color="#7192be"></feFlood><feConvolveMatrix order="1,1" divisor="1" kernelMatrix="1" in="SourceAlpha" result="extrude"></feConvolveMatrix><feComposite in="color1" in2="extrude" result="comp-extrude" operator="in"></feComposite><feOffset dx="0.5" dy="0.5" in="comp-extrude" result="offset-extrude"></feOffset><feMerge><feMergeNode in="offset-extrude"></feMergeNode><feMergeNode in="SourceGraphic"></feMergeNode></feMerge></filter></defs><g filter="url(#editing-extrusion)"><g transform="translate(65.69999980926514, 147.39999389648438)"><path d="M70.20 0L53 0L53-123.40L12.80-123.40L12.80-140L110.40-140L110.40-123.40L70.20-123.40L70.20 0ZM228.60 0L142.40 0L142.40-140L224.40-140L224.40-123.60L159.60-123.60L159.60-80.60L203.80-80.60L203.80-64.20L159.60-64.20L159.60-16.40L228.60-16.40L228.60 0ZM330.10-3.80L330.10-3.80L330.10-3.80Q320.60 2.40 308 2.40L308 2.40L308 2.40Q295.40 2.40 285.90-3.80L285.90-3.80L285.90-3.80Q276.40-10 271-20.60L271-20.60L271-20.60Q265.60-31.20 263-43.60L263-43.60L263-43.60Q260.40-56 260.40-70L260.40-70L260.40-70Q260.40-84 263-96.40L263-96.40L263-96.40Q265.60-108.80 271-119.40L271-119.40L271-119.40Q276.40-130 285.90-136.20L285.90-136.20L285.90-136.20Q295.40-142.40 308-142.40L308-142.40L308-142.40Q320.60-142.40 330.10-136.20L330.10-136.20L330.10-136.20Q339.60-130 345.10-119.40L345.10-119.40L345.10-119.40Q350.60-108.80 353.20-96.40L353.20-96.40L353.20-96.40Q355.80-84 355.80-70L355.80-70L355.80-70Q355.80-56 353.20-43.60L353.20-43.60L353.20-43.60Q350.60-31.20 345.10-20.60L345.10-20.60L345.10-20.60Q339.60-10 330.10-3.80ZM308-13.60L308-13.60L308-13.60Q318.20-13.60 325.20-22.40L325.20-22.40L325.20-22.40Q332.20-31.20 335-43.40L335-43.40L335-43.40Q337.80-55.60 337.80-70L337.80-70L337.80-70Q337.80-94.20 330.50-110.30L330.50-110.30L330.50-110.30Q323.20-126.40 308-126.40L308-126.40L308-126.40Q297.60-126.40 290.70-117.70L290.70-117.70L290.70-117.70Q283.80-109 281-96.80L281-96.80L281-96.80Q278.20-84.60 278.20-70L278.20-70L278.20-70Q278.20-45.80 285.50-29.70L285.50-29.70L285.50-29.70Q292.80-13.60 308-13.60Z" fill="#7192be"></path></g></g><style>text {
  font-size: 64px;
  font-family: Arial Black;
  dominant-baseline: central;
  text-anchor: middle;
}</style></svg>