<svg version="1.2" baseProfile="tiny-ps" xmlns="http://www.w3.org/2000/svg" viewBox="0 0 5117 2234" width="5117" height="2234">
	<title>New Project</title>
	<style>
		tspan { white-space:pre }
	</style>
	<path id="Teo" fill="#ffc43d" aria-label="Teo"  d="M1005.78 362.75L1005.62 2204.06L655.51 2204.03L655.67 362.72L25.75 362.67L25.78 62.38L1635.72 62.52L1635.7 362.81L1005.78 362.75ZM2634.61 2233.5Q2256.66 2233.47 2042.8 2013.73Q1830.41 1792.52 1830.44 1405.8Q1830.47 1008.82 2028.26 781.79Q2226.04 554.76 2571.76 554.79Q2892.58 554.82 3078.61 749.66Q3264.63 944.5 3264.6 1285.81L3264.59 1471.84L2184.94 1471.75Q2192.25 1707.59 2312.36 1835.04Q2432.47 1961.03 2650.74 1961.04Q2794.31 1961.06 2917.36 1934.7Q3041.88 1906.88 3183.98 1843.9L3183.96 2123.69Q3057.97 2183.74 2929.06 2208.63Q2800.14 2233.52 2634.61 2233.5ZM2571.74 815.53Q2407.67 815.52 2308.05 919.51Q2209.89 1023.51 2190.83 1222.72L2926.21 1222.79Q2923.3 1022.1 2829.56 919.56Q2735.81 815.54 2571.74 815.53ZM5092.81 1391.44Q5092.78 1788.41 4889.13 2011.05Q4685.49 2233.69 4322.19 2233.65Q4095.13 2233.63 3920.81 2131.08Q3746.5 2028.52 3652.76 1836.62Q3559.02 1644.72 3559.04 1391.3Q3559.08 997.26 3761.26 776.08Q3963.43 554.91 4331.13 554.94Q4682.71 554.97 4887.78 782.04Q5092.84 1007.65 5092.81 1391.44ZM3913.55 1391.33Q3913.5 1952.37 4328.07 1952.4Q4738.25 1952.44 4738.3 1391.4Q4738.35 836.23 4325.24 836.19Q4108.44 836.17 4010.27 979.72Q3913.58 1123.27 3913.55 1391.33Z" />
	<path id="Teo" fill="#7192be" aria-label="Teo"  d="M937.78 300.75L937.62 2142.06L587.51 2142.03L587.67 300.72L-42.25 300.67L-42.22 0.38L1567.72 0.52L1567.7 300.81L937.78 300.75ZM2566.61 2171.5Q2188.66 2171.47 1974.8 1951.73Q1762.41 1730.52 1762.44 1343.8Q1762.47 946.82 1960.26 719.79Q2158.04 492.76 2503.76 492.79Q2824.58 492.82 3010.61 687.66Q3196.63 882.5 3196.6 1223.81L3196.59 1409.84L2116.94 1409.75Q2124.25 1645.59 2244.36 1773.04Q2364.47 1899.03 2582.74 1899.04Q2726.31 1899.06 2849.36 1872.7Q2973.88 1844.88 3115.98 1781.9L3115.96 2061.69Q2989.97 2121.74 2861.06 2146.63Q2732.14 2171.52 2566.61 2171.5ZM2503.74 753.53Q2339.67 753.52 2240.05 857.51Q2141.89 961.51 2122.83 1160.72L2858.21 1160.79Q2855.3 960.1 2761.56 857.56Q2667.81 753.54 2503.74 753.53ZM5024.81 1329.44Q5024.78 1726.41 4821.13 1949.05Q4617.49 2171.69 4254.19 2171.65Q4027.13 2171.63 3852.81 2069.08Q3678.5 1966.52 3584.76 1774.62Q3491.02 1582.72 3491.04 1329.3Q3491.08 935.26 3693.26 714.08Q3895.43 492.91 4263.13 492.94Q4614.71 492.97 4819.78 720.04Q5024.84 945.65 5024.81 1329.44ZM3845.55 1329.33Q3845.5 1890.37 4260.07 1890.4Q4670.25 1890.44 4670.3 1329.4Q4670.35 774.23 4257.24 774.19Q4040.44 774.17 3942.27 917.72Q3845.58 1061.27 3845.55 1329.33Z" />
</svg>